<svg id="visual" viewBox="0 0 900 300" width="900" height="300" xmlns="http://www.w3.org/2000/svg" xmlns:xlink="http://www.w3.org/1999/xlink" version="1.1"><rect x="0" y="0" width="900" height="300" fill="#00122000"></rect><path d="M0 77L21.5 94.5C43 112 86 147 128.8 169C171.7 191 214.3 200 257.2 207C300 214 343 219 385.8 218.7C428.7 218.3 471.3 212.7 514.2 194.5C557 176.3 600 145.7 642.8 131.3C685.7 117 728.3 119 771.2 132.3C814 145.7 857 170.3 878.5 182.7L900 195L900 301L878.5 301C857 301 814 301 771.2 301C728.3 301 685.7 301 642.8 301C600 301 557 301 514.2 301C471.3 301 428.7 301 385.8 301C343 301 300 301 257.2 301C214.3 301 171.7 301 128.8 301C86 301 43 301 21.5 301L0 301Z" fill="#FDD2D2"></path></svg>